<svg xmlns="http://www.w3.org/2000/svg" viewBox="0 0 81 59.71"><defs><style>.cls-1{fill:#b3b3b3;}.cls-2{fill:#fff;}.cls-3{fill:#12c2ff;}</style></defs><g id="Layer_2" data-name="Layer 2"><g id="Layer_1-2" data-name="Layer 1"><path class="cls-1" d="M66.54,14.47a15.42,15.42,0,0,0-9.83,1.94,22.23,22.23,0,0,0-43.38,6.81c0,.08,0,.15,0,.23A11.09,11.09,0,0,0,.06,33.14a11.11,11.11,0,0,0,11,12.3,11.71,11.71,0,0,0,1.19-.06,8.77,8.77,0,0,0,1,.06H62.22a8.43,8.43,0,0,0,1-.06c.4,0,.8.06,1.21.06a15.56,15.56,0,0,0,2.1-31Z"/><path class="cls-2" d="M67.54,13.47a15.42,15.42,0,0,0-9.83,1.94,22.23,22.23,0,0,0-43.38,6.81c0,.08,0,.15,0,.23A11.09,11.09,0,0,0,1.06,32.14a11.11,11.11,0,0,0,11,12.3,11.71,11.71,0,0,0,1.19-.06,8.77,8.77,0,0,0,1,.06H63.22a8.43,8.43,0,0,0,1-.06c.4,0,.8.06,1.21.06a15.56,15.56,0,0,0,2.1-31Z"/><path d="M27.09,49,24,53.62a3.7,3.7,0,0,0,.46,4.67h0a3.7,3.7,0,0,0,5.23,0h0a3.7,3.7,0,0,0,.46-4.67Z"/><path class="cls-3" d="M27.43,48.66l-3.07,4.62A3.7,3.7,0,0,0,24.82,58h0a3.69,3.69,0,0,0,5.23,0h0a3.7,3.7,0,0,0,.46-4.67Z"/><path d="M38.48,49.34,35.4,54a3.71,3.71,0,0,0,.47,4.67h0a3.71,3.71,0,0,0,5.23,0h0A3.7,3.7,0,0,0,41.56,54Z"/><path class="cls-3" d="M38.82,49l-3.08,4.62a3.71,3.71,0,0,0,.47,4.67h0a3.69,3.69,0,0,0,5.23,0h0a3.7,3.7,0,0,0,.46-4.67Z"/><path d="M49.87,49l-3.08,4.62a3.71,3.71,0,0,0,.47,4.67h0a3.69,3.69,0,0,0,5.23,0h0A3.7,3.7,0,0,0,53,53.62Z"/><path class="cls-3" d="M50.21,48.66l-3.08,4.62A3.71,3.71,0,0,0,47.6,58h0a3.69,3.69,0,0,0,5.23,0h0a3.7,3.7,0,0,0,.46-4.67Z"/></g></g></svg>