<svg xmlns="http://www.w3.org/2000/svg" viewBox="0 0 81 62.81"><defs><style>.cls-1{fill:#12c2ff;}.cls-2{fill:#b3b3b3;}.cls-3{fill:#fff;}</style></defs><g id="Layer_2" data-name="Layer 2"><g id="Layer_1-2" data-name="Layer 1"><rect x="27.56" y="48.47" width="4.47" height="14.82" rx="2.24" transform="translate(26.41 -7.36) rotate(25)"/><rect x="37.56" y="48.47" width="4.47" height="14.82" rx="2.24" transform="translate(27.35 -11.58) rotate(25)"/><rect x="47.56" y="48.47" width="4.47" height="14.82" rx="2.24" transform="translate(28.28 -15.81) rotate(25)"/><rect class="cls-1" x="28.56" y="47.47" width="4.47" height="14.82" rx="2.24" transform="translate(26.08 -7.87) rotate(25)"/><rect class="cls-1" x="38.56" y="47.47" width="4.47" height="14.82" rx="2.24" transform="translate(27.02 -12.1) rotate(25)"/><rect class="cls-1" x="48.56" y="47.47" width="4.47" height="14.82" rx="2.24" transform="translate(27.96 -16.32) rotate(25)"/><path class="cls-2" d="M66.54,14.47a15.42,15.42,0,0,0-9.83,1.94,22.23,22.23,0,0,0-43.38,6.81c0,.08,0,.15,0,.23A11.09,11.09,0,0,0,.06,33.14a11.11,11.11,0,0,0,11,12.3,11.71,11.71,0,0,0,1.19-.06,8.77,8.77,0,0,0,1,.06H62.22a8.43,8.43,0,0,0,1-.06c.4,0,.8.06,1.21.06a15.56,15.56,0,0,0,2.1-31Z"/><path class="cls-3" d="M67.54,13.47a15.42,15.42,0,0,0-9.83,1.94,22.23,22.23,0,0,0-43.38,6.81c0,.08,0,.15,0,.23A11.09,11.09,0,0,0,1.06,32.14a11.11,11.11,0,0,0,11,12.3,11.71,11.71,0,0,0,1.19-.06,8.77,8.77,0,0,0,1,.06H63.22a8.43,8.43,0,0,0,1-.06c.4,0,.8.06,1.21.06a15.56,15.56,0,0,0,2.1-31Z"/></g></g></svg>