<svg xmlns="http://www.w3.org/2000/svg" viewBox="0 0 79.47 76.85"><defs><style>.cls-1{fill:#12c2ff;}.cls-2{fill:#ffc107;}.cls-3{fill:#b3b3b3;}.cls-4{fill:#fff;}</style></defs><g id="Layer_2" data-name="Layer 2"><g id="Layer_1-2" data-name="Layer 1"><rect x="23.09" y="62.52" width="4.47" height="14.82" rx="2.24" transform="matrix(0.91, 0.42, -0.42, 0.91, 31.93, -4.15)"/><rect x="33.09" y="62.52" width="4.47" height="14.82" rx="2.24" transform="translate(32.86 -8.38) rotate(25)"/><rect x="43.09" y="62.52" width="4.47" height="14.82" rx="2.24" transform="translate(33.8 -12.6) rotate(25)"/><rect class="cls-1" x="24.09" y="61.52" width="4.47" height="14.82" rx="2.24" transform="translate(31.6 -4.67) rotate(25)"/><rect class="cls-1" x="34.09" y="61.52" width="4.47" height="14.82" rx="2.24" transform="translate(32.53 -8.9) rotate(25)"/><rect class="cls-1" x="44.09" y="61.52" width="4.47" height="14.82" rx="2.24" transform="translate(33.47 -13.12) rotate(25)"/><circle cx="49.08" cy="30.38" r="18.26"/><polygon points="45.43 8.47 52.73 8.47 49.08 1.17 45.43 8.47"/><polygon points="45.43 52.3 52.73 52.3 49.08 59.6 45.43 52.3"/><polygon points="70.99 26.73 70.99 34.04 78.3 30.38 70.99 26.73"/><polygon points="27.17 26.73 27.17 34.04 19.87 30.38 27.17 26.73"/><polygon points="29.75 16.22 34.92 11.05 27.17 8.47 29.75 16.22"/><polygon points="63.25 11.05 68.41 16.22 70.99 8.47 63.25 11.05"/><polygon points="63.25 49.71 68.41 44.55 70.99 52.3 63.25 49.71"/><polygon points="29.75 44.55 34.92 49.71 27.17 52.3 29.75 44.55"/><circle class="cls-2" cx="50.25" cy="29.22" r="18.26"/><polygon class="cls-2" points="46.6 7.3 53.9 7.3 50.25 0 46.6 7.3"/><polygon class="cls-2" points="46.6 51.13 53.9 51.13 50.25 58.43 46.6 51.13"/><polygon class="cls-2" points="72.16 25.56 72.16 32.87 79.47 29.22 72.16 25.56"/><polygon class="cls-2" points="28.34 25.56 28.34 32.87 21.04 29.22 28.34 25.56"/><polygon class="cls-2" points="30.92 15.05 36.09 9.89 28.34 7.3 30.92 15.05"/><polygon class="cls-2" points="64.42 9.89 69.58 15.05 72.16 7.3 64.42 9.89"/><polygon class="cls-2" points="64.42 48.55 69.58 43.38 72.16 51.13 64.42 48.55"/><polygon class="cls-2" points="30.92 43.38 36.09 48.55 28.34 51.13 30.92 43.38"/><path class="cls-3" d="M53,34.91a12.37,12.37,0,0,0-7.84,1.54,17.71,17.71,0,0,0-34.57,5.44v.17A9,9,0,0,0,7.78,42,8.86,8.86,0,0,0,8.86,59.6c.32,0,.63,0,.94-.05a7.55,7.55,0,0,0,.83.05h39a7,7,0,0,0,.8-.05c.32,0,.64.05,1,.05A12.4,12.4,0,0,0,53,34.91Z"/><path class="cls-4" d="M53.84,34.11A12.36,12.36,0,0,0,46,35.66a17.71,17.71,0,0,0-34.57,5.43v.18a9.07,9.07,0,0,0-2.86-.12A8.86,8.86,0,0,0,9.65,58.8c.32,0,.64,0,.95,0a7.55,7.55,0,0,0,.83,0h39a7,7,0,0,0,.8,0c.32,0,.64,0,1,0a12.4,12.4,0,0,0,1.67-24.69Z"/></g></g></svg>