<svg xmlns="http://www.w3.org/2000/svg" viewBox="0 0 81 61.44"><defs><style>.cls-1{fill:#b3b3b3;}.cls-2{fill:#fff;}.cls-3{fill:#ffc107;}</style></defs><g id="Layer_2" data-name="Layer 2"><g id="Layer_1-2" data-name="Layer 1"><path class="cls-1" d="M66.54,14.47a15.42,15.42,0,0,0-9.83,1.94,22.23,22.23,0,0,0-43.38,6.81c0,.08,0,.15,0,.23A11.09,11.09,0,0,0,.06,33.14a11.11,11.11,0,0,0,11,12.3,11.71,11.71,0,0,0,1.19-.06,8.77,8.77,0,0,0,1,.06H62.22a8.43,8.43,0,0,0,1-.06c.4,0,.8.06,1.21.06a15.56,15.56,0,0,0,2.1-31Z"/><path class="cls-2" d="M67.54,13.47a15.42,15.42,0,0,0-9.83,1.94,22.23,22.23,0,0,0-43.38,6.81c0,.08,0,.15,0,.23A11.09,11.09,0,0,0,1.06,32.14a11.11,11.11,0,0,0,11,12.3,11.71,11.71,0,0,0,1.19-.06,8.77,8.77,0,0,0,1,.06H63.22a8.43,8.43,0,0,0,1-.06c.4,0,.8.06,1.21.06a15.56,15.56,0,0,0,2.1-31Z"/><polygon points="36.5 36.44 31.5 46.44 36.5 46.44 31.5 61.44 44 43.94 39 43.94 44 36.44 36.5 36.44"/><polygon class="cls-3" points="37.5 35.44 32.5 45.44 37.5 45.44 32.5 60.44 45 42.94 40 42.94 45 35.44 37.5 35.44"/></g></g></svg>