<svg xmlns="http://www.w3.org/2000/svg" viewBox="0 0 79.6 72.92"><defs><style>.cls-1{fill:#ffc107;}.cls-2{fill:#b3b3b3;}.cls-3{fill:#fff;}</style></defs><g id="Layer_2" data-name="Layer 2"><g id="Layer_1-2" data-name="Layer 1"><circle cx="49.01" cy="30.59" r="18.38"/><polygon points="45.33 8.53 52.69 8.53 49.01 1.18 45.33 8.53"/><polygon points="45.33 52.65 52.69 52.65 49.01 60 45.33 52.65"/><polygon points="71.07 26.91 71.07 34.27 78.42 30.59 71.07 26.91"/><polygon points="26.95 26.91 26.95 34.27 19.6 30.59 26.95 26.91"/><polygon points="29.55 16.33 34.75 11.13 26.95 8.53 29.55 16.33"/><polygon points="63.27 11.13 68.47 16.33 71.07 8.53 63.27 11.13"/><polygon points="63.27 50.05 68.47 44.85 71.07 52.65 63.27 50.05"/><polygon points="29.55 44.85 34.75 50.05 26.95 52.65 29.55 44.85"/><circle class="cls-1" cx="50.19" cy="29.41" r="18.38"/><polygon class="cls-1" points="46.51 7.35 53.86 7.35 50.19 0 46.51 7.35"/><polygon class="cls-1" points="46.51 51.47 53.86 51.47 50.19 58.82 46.51 51.47"/><polygon class="cls-1" points="72.25 25.73 72.25 33.09 79.6 29.41 72.25 25.73"/><polygon class="cls-1" points="28.13 25.73 28.13 33.09 20.77 29.41 28.13 25.73"/><polygon class="cls-1" points="30.73 15.15 35.93 9.95 28.13 7.35 30.73 15.15"/><polygon class="cls-1" points="64.45 9.95 69.65 15.15 72.25 7.35 64.45 9.95"/><polygon class="cls-1" points="64.45 48.87 69.65 43.67 72.25 51.47 64.45 48.87"/><polygon class="cls-1" points="30.73 43.67 35.93 48.87 28.13 51.47 30.73 43.67"/><path class="cls-2" d="M53.4,35.23a12.37,12.37,0,0,0-7.89,1.55A17.83,17.83,0,0,0,10.7,42.25v.18a8.84,8.84,0,0,0-2.87-.12A8.92,8.92,0,0,0,8.92,60.08c.32,0,.64,0,.95,0a7.55,7.55,0,0,0,.83,0H49.93a7,7,0,0,0,.81,0c.32,0,.65,0,1,0A12.48,12.48,0,0,0,53.4,35.23Z"/><path class="cls-3" d="M54.2,34.42A12.51,12.51,0,0,0,46.31,36,17.84,17.84,0,0,0,11.5,41.44c0,.07,0,.12,0,.18a9.2,9.2,0,0,0-2.88-.11A8.92,8.92,0,0,0,9.72,59.28c.32,0,.64,0,.95-.05a7.55,7.55,0,0,0,.83.05H50.73a7,7,0,0,0,.81-.05c.33,0,.65.05,1,.05A12.49,12.49,0,0,0,54.2,34.42Z"/><polygon points="29.29 52.86 25.28 60.88 29.29 60.88 25.28 72.92 35.31 58.88 31.3 58.88 35.31 52.86 29.29 52.86"/><polygon class="cls-1" points="30.09 52.05 26.08 60.08 30.09 60.08 26.08 72.12 36.11 58.07 32.1 58.07 36.11 52.05 30.09 52.05"/></g></g></svg>