<svg xmlns="http://www.w3.org/2000/svg" viewBox="0 0 81 57.99"><defs><style>.cls-1{fill:#b3b3b3;}.cls-2{fill:#fff;}</style></defs><g id="Layer_2" data-name="Layer 2"><g id="Layer_1-2" data-name="Layer 1"><path class="cls-1" d="M66.54,14.47a15.42,15.42,0,0,0-9.83,1.94,22.23,22.23,0,0,0-43.38,6.81c0,.08,0,.15,0,.23A11.09,11.09,0,0,0,.06,33.14a11.11,11.11,0,0,0,11,12.3,11.71,11.71,0,0,0,1.19-.06,8.77,8.77,0,0,0,1,.06H62.22a8.43,8.43,0,0,0,1-.06c.4,0,.8.06,1.21.06a15.56,15.56,0,0,0,2.1-31Z"/><path class="cls-2" d="M67.54,13.47a15.42,15.42,0,0,0-9.83,1.94,22.23,22.23,0,0,0-43.38,6.81c0,.08,0,.15,0,.23A11.09,11.09,0,0,0,1.06,32.14a11.11,11.11,0,0,0,11,12.3,11.71,11.71,0,0,0,1.19-.06,8.77,8.77,0,0,0,1,.06H63.22a8.43,8.43,0,0,0,1-.06c.4,0,.8.06,1.21.06a15.56,15.56,0,0,0,2.1-31Z"/><circle cx="46.3" cy="55.16" r="2.8"/><circle class="cls-2" cx="46.48" cy="54.97" r="2.8"/><circle cx="31.03" cy="51.56" r="2.53"/><circle class="cls-2" cx="31.2" cy="51.39" r="2.53"/><circle cx="36.24" cy="57.07" r="0.92"/><circle class="cls-2" cx="36.3" cy="57.01" r="0.92"/><circle cx="39.05" cy="49.58" r="0.92"/><circle class="cls-2" cx="39.12" cy="49.51" r="0.92"/><circle cx="21.94" cy="52.81" r="0.92"/><circle class="cls-2" cx="22" cy="52.75" r="0.92"/></g></g></svg>