<svg xmlns="http://www.w3.org/2000/svg" viewBox="0 0 81 57.56"><defs><style>.cls-1{fill:#fff;}.cls-2{fill:#b3b3b3;}</style></defs><g id="Layer_2" data-name="Layer 2"><g id="Layer_1-2" data-name="Layer 1"><circle cx="39.88" cy="54.73" r="2.8"/><circle class="cls-1" cx="40.07" cy="54.54" r="2.8"/><circle cx="54.17" cy="51.84" r="2.53"/><circle class="cls-1" cx="54.34" cy="51.67" r="2.53"/><circle cx="24.62" cy="51.12" r="2.53"/><circle class="cls-1" cx="24.78" cy="50.95" r="2.53"/><circle cx="29.82" cy="56.64" r="0.92"/><circle class="cls-1" cx="29.88" cy="56.58" r="0.92"/><circle cx="50.07" cy="56.31" r="0.92"/><circle class="cls-1" cx="50.13" cy="56.25" r="0.92"/><circle cx="46.76" cy="49.17" r="0.92"/><circle class="cls-1" cx="46.82" cy="49.11" r="0.92"/><circle cx="64.43" cy="51.42" r="0.92"/><circle class="cls-1" cx="64.5" cy="51.36" r="0.92"/><circle cx="32.64" cy="49.14" r="0.92"/><circle class="cls-1" cx="32.7" cy="49.08" r="0.92"/><circle cx="15.52" cy="52.38" r="0.92"/><circle class="cls-1" cx="15.58" cy="52.31" r="0.92"/><path class="cls-2" d="M66.54,14.47a15.42,15.42,0,0,0-9.83,1.94,22.23,22.23,0,0,0-43.38,6.81c0,.08,0,.15,0,.23A11.09,11.09,0,0,0,.06,33.14a11.11,11.11,0,0,0,11,12.3,11.71,11.71,0,0,0,1.19-.06,8.77,8.77,0,0,0,1,.06H62.22a8.43,8.43,0,0,0,1-.06c.4,0,.8.06,1.21.06a15.56,15.56,0,0,0,2.1-31Z"/><path class="cls-1" d="M67.54,13.47a15.42,15.42,0,0,0-9.83,1.94,22.23,22.23,0,0,0-43.38,6.81c0,.08,0,.15,0,.23A11.09,11.09,0,0,0,1.06,32.14a11.11,11.11,0,0,0,11,12.3,11.71,11.71,0,0,0,1.19-.06,8.77,8.77,0,0,0,1,.06H63.22a8.43,8.43,0,0,0,1-.06c.4,0,.8.06,1.21.06a15.56,15.56,0,0,0,2.1-31Z"/></g></g></svg>