<svg xmlns="http://www.w3.org/2000/svg" viewBox="0 0 81 60.95"><defs><style>.cls-1{fill:#12c2ff;}.cls-2{fill:#fff;}.cls-3{fill:#b3b3b3;}</style></defs><g id="Layer_2" data-name="Layer 2"><g id="Layer_1-2" data-name="Layer 1"><rect x="42.17" y="47.66" width="4.15" height="13.75" rx="2.07" transform="translate(27.19 -13.59) rotate(25)"/><rect x="51.44" y="47.66" width="4.15" height="13.75" rx="2.07" transform="translate(28.06 -17.51) rotate(25)"/><rect x="60.71" y="47.66" width="4.15" height="13.75" rx="2.07" transform="translate(28.93 -21.43) rotate(25)"/><rect class="cls-1" x="43.09" y="46.73" width="4.15" height="13.75" rx="2.07" transform="translate(26.88 -14.07) rotate(25)"/><rect class="cls-1" x="52.37" y="46.73" width="4.15" height="13.75" rx="2.07" transform="translate(27.75 -17.99) rotate(25)"/><rect class="cls-1" x="61.64" y="46.73" width="4.15" height="13.75" rx="2.07" transform="translate(28.62 -21.91) rotate(25)"/><circle cx="27.66" cy="54.28" r="2.19"/><circle class="cls-2" cx="27.81" cy="54.13" r="2.19"/><circle cx="38.82" cy="52.02" r="1.97"/><circle class="cls-2" cx="38.95" cy="51.89" r="1.97"/><circle cx="15.74" cy="51.46" r="1.97"/><circle class="cls-2" cx="15.88" cy="51.33" r="1.97"/><circle cx="19.81" cy="55.77" r="0.72"/><circle class="cls-2" cx="19.86" cy="55.72" r="0.72"/><circle cx="35.61" cy="55.52" r="0.72"/><circle class="cls-2" cx="35.66" cy="55.47" r="0.72"/><circle cx="33.03" cy="49.94" r="0.72"/><circle class="cls-2" cx="33.08" cy="49.89" r="0.72"/><circle cx="46.83" cy="51.7" r="0.72"/><circle class="cls-2" cx="46.88" cy="51.65" r="0.72"/><circle cx="22.01" cy="49.92" r="0.72"/><circle class="cls-2" cx="22.06" cy="49.87" r="0.72"/><circle cx="8.64" cy="52.44" r="0.72"/><circle class="cls-2" cx="8.69" cy="52.39" r="0.72"/><path class="cls-3" d="M66.54,14.47a15.42,15.42,0,0,0-9.83,1.94,22.23,22.23,0,0,0-43.38,6.81c0,.08,0,.15,0,.23A11.09,11.09,0,0,0,.06,33.14a11.11,11.11,0,0,0,11,12.3,11.71,11.71,0,0,0,1.19-.06,8.77,8.77,0,0,0,1,.06H62.22a8.43,8.43,0,0,0,1-.06c.4,0,.8.06,1.21.06a15.56,15.56,0,0,0,2.1-31Z"/><path class="cls-2" d="M67.54,13.47a15.42,15.42,0,0,0-9.83,1.94,22.23,22.23,0,0,0-43.38,6.81c0,.08,0,.15,0,.23A11.09,11.09,0,0,0,1.06,32.14a11.11,11.11,0,0,0,11,12.3,11.71,11.71,0,0,0,1.19-.06,8.77,8.77,0,0,0,1,.06H63.22a8.43,8.43,0,0,0,1-.06c.4,0,.8.06,1.21.06a15.56,15.56,0,0,0,2.1-31Z"/></g></g></svg>