<svg xmlns="http://www.w3.org/2000/svg" viewBox="0 0 81 62.87"><defs><style>.cls-1{fill:#b3b3b3;}.cls-2{fill:#fff;}.cls-3{fill:#12c2ff;}</style></defs><g id="Layer_2" data-name="Layer 2"><g id="Layer_1-2" data-name="Layer 1"><path class="cls-1" d="M66.54,14.47a15.42,15.42,0,0,0-9.83,1.94,22.23,22.23,0,0,0-43.38,6.81c0,.08,0,.15,0,.23A11.09,11.09,0,0,0,.06,33.14a11.11,11.11,0,0,0,11,12.3,11.71,11.71,0,0,0,1.19-.06,8.77,8.77,0,0,0,1,.06H62.22a8.43,8.43,0,0,0,1-.06c.4,0,.8.06,1.21.06a15.56,15.56,0,0,0,2.1-31Z"/><path class="cls-2" d="M67.54,13.47a15.42,15.42,0,0,0-9.83,1.94,22.23,22.23,0,0,0-43.38,6.81c0,.08,0,.15,0,.23A11.09,11.09,0,0,0,1.06,32.14a11.11,11.11,0,0,0,11,12.3,11.71,11.71,0,0,0,1.19-.06,8.77,8.77,0,0,0,1,.06H63.22a8.43,8.43,0,0,0,1-.06c.4,0,.8.06,1.21.06a15.56,15.56,0,0,0,2.1-31Z"/><rect x="27.26" y="48.53" width="4.47" height="14.82" rx="2.24" transform="translate(26.41 -7.23) rotate(25)"/><rect x="37.26" y="48.53" width="4.47" height="14.82" rx="2.24" transform="translate(27.34 -11.45) rotate(25)"/><rect x="47.26" y="48.53" width="4.47" height="14.82" rx="2.24" transform="translate(28.28 -15.68) rotate(25)"/><rect class="cls-3" x="28.26" y="47.53" width="4.47" height="14.82" rx="2.24" transform="translate(26.08 -7.74) rotate(25)"/><rect class="cls-3" x="38.26" y="47.53" width="4.47" height="14.82" rx="2.24" transform="translate(27.02 -11.97) rotate(25)"/><rect class="cls-3" x="48.26" y="47.53" width="4.47" height="14.82" rx="2.24" transform="translate(27.95 -16.19) rotate(25)"/><rect x="16.76" y="55.33" width="6.25" height="0.62" rx="0.31"/><rect x="16.76" y="55.33" width="6.25" height="0.62" rx="0.31" transform="translate(-35.75 75.52) rotate(-90)"/><rect x="16.76" y="55.33" width="6.25" height="0.62" rx="0.31" transform="translate(-33.51 30.36) rotate(-45)"/><rect x="16.76" y="55.33" width="6.25" height="0.62" rx="0.31" transform="translate(45.16 2.23) rotate(45)"/><rect class="cls-2" x="16.99" y="55.1" width="6.25" height="0.62" rx="0.31"/><rect class="cls-2" x="16.99" y="55.1" width="6.25" height="0.62" rx="0.31" transform="translate(-35.3 75.52) rotate(-90)"/><rect class="cls-2" x="16.99" y="55.1" width="6.25" height="0.62" rx="0.31" transform="translate(-33.29 30.45) rotate(-45)"/><rect class="cls-2" x="16.99" y="55.1" width="6.25" height="0.62" rx="0.31" transform="translate(45.07 2.01) rotate(45)"/><rect x="57.26" y="55.44" width="6.25" height="0.62" rx="0.31"/><rect x="57.26" y="55.44" width="6.25" height="0.62" rx="0.31" transform="translate(4.64 116.13) rotate(-90)"/><rect x="57.26" y="55.44" width="6.25" height="0.62" rx="0.31" transform="translate(-21.73 59.03) rotate(-45)"/><rect x="57.26" y="55.44" width="6.25" height="0.62" rx="0.31" transform="translate(57.11 -26.37) rotate(45)"/><rect class="cls-2" x="57.49" y="55.21" width="6.25" height="0.62" rx="0.31"/><rect class="cls-2" x="57.49" y="55.21" width="6.25" height="0.62" rx="0.31" transform="translate(5.09 116.13) rotate(-90)"/><rect class="cls-2" x="57.49" y="55.21" width="6.25" height="0.62" rx="0.31" transform="translate(-21.51 59.12) rotate(-45)"/><rect class="cls-2" x="57.49" y="55.21" width="6.25" height="0.62" rx="0.31" transform="translate(57.01 -26.6) rotate(45)"/></g></g></svg>