<svg xmlns="http://www.w3.org/2000/svg" viewBox="0 0 55.55 49.57"><defs><style>.cls-1{fill:#ffc107;}.cls-2{fill:#b3b3b3;}.cls-3{fill:#fff;}</style></defs><g id="Layer_2" data-name="Layer 2"><g id="Layer_1-2" data-name="Layer 1"><path d="M42.81,38a25,25,0,0,1-22-37A25,25,0,1,0,54.76,34.92,24.84,24.84,0,0,1,42.81,38Z"/><path class="cls-1" d="M43.59,37a25,25,0,0,1-22-37A25,25,0,1,0,55.55,33.92,24.91,24.91,0,0,1,43.59,37Z"/><path class="cls-2" d="M29.65,35.77a6.89,6.89,0,0,0-4.38.86,9.9,9.9,0,0,0-19.33,3v.1a4.95,4.95,0,1,0-1,9.8,4.58,4.58,0,0,0,.53,0,3.44,3.44,0,0,0,.46,0H27.72a3.4,3.4,0,0,0,.45,0l.54,0a6.93,6.93,0,0,0,.94-13.8Z"/><path class="cls-3" d="M30.09,35.32a7,7,0,0,0-4.38.86,9.9,9.9,0,0,0-19.32,3v.1A5,5,0,0,0,.47,43.64,5,5,0,0,0,5.4,49.12a4.53,4.53,0,0,0,.52,0,3.71,3.71,0,0,0,.47,0H28.17l.45,0,.54,0a6.93,6.93,0,0,0,.93-13.8Z"/></g></g></svg>