<svg xmlns="http://www.w3.org/2000/svg" viewBox="0 0 75.71 55.74"><defs><style>.cls-1{fill:#ffc107;}.cls-2{fill:#b3b3b3;}.cls-3{fill:#fff;}.cls-4{fill:#e6e6e6;}</style></defs><g id="Layer_2" data-name="Layer 2"><g id="Layer_1-2" data-name="Layer 1"><path d="M65.29,31A20.43,20.43,0,0,1,47.34.82,20.44,20.44,0,1,0,75.07,28.54,20.33,20.33,0,0,1,65.29,31Z"/><path class="cls-1" d="M65.93,30.21A20.43,20.43,0,0,1,48,0,20.44,20.44,0,1,0,75.71,27.73,20.43,20.43,0,0,1,65.93,30.21Z"/><path class="cls-2" d="M53.4,25.88a12.43,12.43,0,0,0-7.89,1.55A17.84,17.84,0,0,0,10.7,32.9v.18A9.13,9.13,0,0,0,7.83,33,8.92,8.92,0,0,0,8.92,50.74a7.46,7.46,0,0,0,.95-.06,7.54,7.54,0,0,0,.83.06H49.93a7,7,0,0,0,.81-.05c.32,0,.65.05,1,.05A12.49,12.49,0,0,0,53.4,25.88Z"/><path class="cls-3" d="M54.2,25.08a12.45,12.45,0,0,0-7.89,1.55A17.84,17.84,0,0,0,11.5,32.1c0,.06,0,.12,0,.18A8.92,8.92,0,1,0,9.72,49.93c.32,0,.64,0,.95,0a7.55,7.55,0,0,0,.83,0H50.73a7,7,0,0,0,.81,0c.33,0,.65,0,1,0A12.48,12.48,0,0,0,54.2,25.08Z"/><path class="cls-2" d="M37.8,39a8.31,8.31,0,0,1,5.29,1,12,12,0,0,1,23.38,3.68v.12a5.91,5.91,0,0,1,1.93-.08,6,6,0,0,1-.73,11.94c-.21,0-.43,0-.64,0a5.09,5.09,0,0,1-.56,0H40.12a4.9,4.9,0,0,1-.54,0c-.22,0-.44,0-.66,0A8.39,8.39,0,0,1,37.8,39Z"/><path class="cls-4" d="M37.26,38.5a8.3,8.3,0,0,1,5.29,1,12,12,0,0,1,23.39,3.68s0,.08,0,.12a5.92,5.92,0,0,1,1.93-.08,6,6,0,0,1-.73,11.94c-.21,0-.43,0-.64,0a5.09,5.09,0,0,1-.55,0H39.58a4.9,4.9,0,0,1-.54,0c-.22,0-.43,0-.66,0a8.39,8.39,0,0,1-1.12-16.7Z"/></g></g></svg>