<svg xmlns="http://www.w3.org/2000/svg" viewBox="0 0 73.66 62.85"><defs><style>.cls-1{fill:#ffc107;}.cls-2{fill:#b3b3b3;}.cls-3{fill:#e6e6e6;}.cls-4{fill:#fff;}</style></defs><g id="Layer_2" data-name="Layer 2"><g id="Layer_1-2" data-name="Layer 1"><path d="M63.24,31A20.45,20.45,0,0,1,45.29.82,20.44,20.44,0,1,0,73,28.54,20.27,20.27,0,0,1,63.24,31Z"/><path class="cls-1" d="M63.89,30.21A20.45,20.45,0,0,1,45.93,0,20.44,20.44,0,1,0,73.66,27.73,20.36,20.36,0,0,1,63.89,30.21Z"/><path class="cls-2" d="M11.14,24a12,12,0,0,1,7.57,1.49,17.11,17.11,0,0,1,33.4,5.25v.17a8.75,8.75,0,0,1,2.76-.11,8.56,8.56,0,0,1-1,17.06c-.31,0-.62,0-.92-.05a6.87,6.87,0,0,1-.8.05H14.46a6.81,6.81,0,0,1-.78-.05c-.3,0-.61.05-.93.05A12,12,0,0,1,11.14,24Z"/><path class="cls-3" d="M10.37,23.22a11.91,11.91,0,0,1,7.57,1.49A17.11,17.11,0,0,1,51.34,30v.17A8.75,8.75,0,0,1,54.1,30a8.56,8.56,0,0,1-1,17.06c-.31,0-.62,0-.92,0a7,7,0,0,1-.8,0H13.69a6.81,6.81,0,0,1-.78,0c-.3,0-.61,0-.93,0a12,12,0,0,1-1.61-23.86Z"/><path class="cls-2" d="M53.4,33a12.43,12.43,0,0,0-7.89,1.55A17.84,17.84,0,0,0,10.7,40v.18a9.13,9.13,0,0,0-2.87-.11A8.92,8.92,0,0,0,8.92,57.85a7.46,7.46,0,0,0,.95-.06,5.69,5.69,0,0,0,.83.06H49.93a7,7,0,0,0,.81-.05c.32,0,.65.05,1,.05A12.49,12.49,0,0,0,53.4,33Z"/><path class="cls-4" d="M54.2,32.19a12.45,12.45,0,0,0-7.89,1.55A17.84,17.84,0,0,0,11.5,39.21c0,.06,0,.12,0,.18A8.92,8.92,0,1,0,9.72,57c.32,0,.64,0,.95,0a7.55,7.55,0,0,0,.83,0H50.73a7,7,0,0,0,.81,0c.33,0,.65,0,1,0A12.48,12.48,0,0,0,54.2,32.19Z"/><path class="cls-2" d="M37.8,46.15a8.31,8.31,0,0,1,5.29,1,12,12,0,0,1,23.38,3.68V51a5.91,5.91,0,0,1,1.93-.08,6,6,0,0,1-.73,11.94c-.21,0-.43,0-.64,0a5.09,5.09,0,0,1-.56,0H40.12a4.9,4.9,0,0,1-.54,0c-.22,0-.44,0-.66,0a8.39,8.39,0,0,1-1.12-16.7Z"/><path class="cls-3" d="M37.26,45.61a8.36,8.36,0,0,1,5.29,1,12,12,0,0,1,23.39,3.68s0,.08,0,.12a5.92,5.92,0,0,1,1.93-.08,6,6,0,0,1-.73,11.94c-.21,0-.43,0-.64,0a5.09,5.09,0,0,1-.55,0H39.58a4.9,4.9,0,0,1-.54,0c-.22,0-.43,0-.66,0a8.39,8.39,0,0,1-1.12-16.7Z"/></g></g></svg>