<svg xmlns="http://www.w3.org/2000/svg" viewBox="0 0 80 54.3"><defs><style>.cls-1{fill:#b3b3b3;}.cls-2{fill:#e6e6e6;}.cls-3{fill:#fff;}</style></defs><g id="Layer_2" data-name="Layer 2"><g id="Layer_1-2" data-name="Layer 1"><path class="cls-1" d="M12.1,12.11a13,13,0,0,1,8.22,1.61,18.59,18.59,0,0,1,36.28,5.7,1.15,1.15,0,0,1,0,.19,9.67,9.67,0,0,1,3-.12A9.29,9.29,0,0,1,58.46,38c-.34,0-.67,0-1,0a8.46,8.46,0,0,1-.87,0H15.71a7.92,7.92,0,0,1-.85,0c-.33,0-.67,0-1,0a13,13,0,0,1-1.75-25.9Z"/><path class="cls-2" d="M11.26,11.27a12.9,12.9,0,0,1,8.22,1.62,18.59,18.59,0,0,1,36.28,5.7v.19a9.07,9.07,0,0,1,3-.12,9.3,9.3,0,0,1-1.14,18.52,8.22,8.22,0,0,1-1-.06,8.29,8.29,0,0,1-.87.06H14.87a5.73,5.73,0,0,1-.84-.06c-.34,0-.68.06-1,.06a13,13,0,0,1-1.75-25.91Z"/><path class="cls-1" d="M58,21.88a13.51,13.51,0,0,0-8.57,1.68,19.37,19.37,0,0,0-37.8,6,1.21,1.21,0,0,0,0,.19,9.89,9.89,0,0,0-3.13-.12A9.68,9.68,0,0,0,9.68,48.87c.35,0,.7,0,1,0a8.72,8.72,0,0,0,.9,0H54.23a8.49,8.49,0,0,0,.88,0c.35,0,.7,0,1.06,0a13.56,13.56,0,0,0,1.82-27Z"/><path class="cls-3" d="M58.86,21a13.51,13.51,0,0,0-8.57,1.68,19.37,19.37,0,0,0-37.8,5.94c0,.07,0,.13,0,.2a10.18,10.18,0,0,0-3.13-.13A9.69,9.69,0,0,0,10.56,48a8.89,8.89,0,0,0,1-.06,6.8,6.8,0,0,0,.9.06H55.1A8.49,8.49,0,0,0,56,48c.35,0,.7,0,1.06,0a13.56,13.56,0,0,0,1.82-27Z"/><path class="cls-1" d="M41.05,36.17A9.08,9.08,0,0,1,46.8,37.3a13,13,0,0,1,25.39,4v.13a6.67,6.67,0,0,1,2.1-.08,6.5,6.5,0,0,1-.79,13,5.37,5.37,0,0,1-.7,0,4.08,4.08,0,0,1-.61,0H43.57a5.83,5.83,0,0,1-.59,0c-.23,0-.47,0-.71,0a9.11,9.11,0,0,1-1.22-18.13Z"/><path class="cls-2" d="M40.46,35.59a9,9,0,0,1,5.76,1.13,13,13,0,0,1,25.39,4v.13a6.32,6.32,0,0,1,2.09-.08,6.5,6.5,0,0,1-.79,13c-.23,0-.47,0-.7,0a5.85,5.85,0,0,1-.6,0H43a5.65,5.65,0,0,1-.59,0c-.24,0-.47,0-.71,0a9.11,9.11,0,0,1-1.23-18.13Z"/></g></g></svg>