<svg xmlns="http://www.w3.org/2000/svg" viewBox="0 0 79.4 65.21"><defs><style>.cls-1{fill:#ffc107;}.cls-2{fill:#b3b3b3;}.cls-3{fill:#fff;}.cls-4{fill:#12c2ff;}</style></defs><g id="Layer_2" data-name="Layer 2"><g id="Layer_1-2" data-name="Layer 1"><path d="M68.22,33.31A21.94,21.94,0,0,1,49,.88,21.94,21.94,0,1,0,78.71,30.64,21.85,21.85,0,0,1,68.22,33.31Z"/><path class="cls-1" d="M68.9,32.43A21.94,21.94,0,0,1,49.64,0,21.94,21.94,0,1,0,79.4,29.76,21.86,21.86,0,0,1,68.9,32.43Z"/><path class="cls-2" d="M53.4,24.48A12.43,12.43,0,0,0,45.51,26,17.84,17.84,0,0,0,10.7,31.5v.18a8.85,8.85,0,0,0-2.87-.11A8.91,8.91,0,0,0,8.92,49.33c.32,0,.64,0,.95,0a7.55,7.55,0,0,0,.83,0H49.93a7,7,0,0,0,.81,0c.32,0,.65,0,1,0A12.48,12.48,0,0,0,53.4,24.48Z"/><path class="cls-3" d="M54.2,23.68a12.38,12.38,0,0,0-7.89,1.55A17.84,17.84,0,0,0,11.5,30.7c0,.06,0,.12,0,.18A8.92,8.92,0,1,0,9.72,48.53c.32,0,.64,0,.95-.05a7.55,7.55,0,0,0,.83.05H50.73a7,7,0,0,0,.81-.05c.33,0,.65.05,1,.05A12.48,12.48,0,0,0,54.2,23.68Z"/><rect x="40.68" y="51.91" width="4.15" height="13.75" rx="2.07" transform="translate(28.85 -12.56) rotate(25)"/><rect x="49.95" y="51.91" width="4.15" height="13.75" rx="2.07" transform="translate(29.72 -16.48) rotate(25)"/><rect x="59.22" y="51.91" width="4.15" height="13.75" rx="2.07" transform="translate(30.59 -20.4) rotate(25)"/><rect class="cls-4" x="41.6" y="50.98" width="4.15" height="13.75" rx="2.07" transform="translate(28.54 -13.04) rotate(25)"/><rect class="cls-4" x="50.88" y="50.98" width="4.15" height="13.75" rx="2.07" transform="translate(29.41 -16.96) rotate(25)"/><rect class="cls-4" x="60.15" y="50.98" width="4.15" height="13.75" rx="2.07" transform="translate(30.28 -20.88) rotate(25)"/><circle cx="26.17" cy="58.53" r="2.19"/><circle class="cls-3" cx="26.32" cy="58.39" r="2.19"/><circle cx="37.33" cy="56.27" r="1.97"/><circle class="cls-3" cx="37.46" cy="56.14" r="1.97"/><circle cx="14.25" cy="55.72" r="1.97"/><circle class="cls-3" cx="14.39" cy="55.59" r="1.97"/><circle cx="18.32" cy="60.02" r="0.72"/><circle class="cls-3" cx="18.37" cy="59.97" r="0.72"/><circle cx="34.12" cy="59.77" r="0.72"/><circle class="cls-3" cx="34.17" cy="59.72" r="0.72"/><circle cx="31.54" cy="54.19" r="0.72"/><circle class="cls-3" cx="31.59" cy="54.15" r="0.72"/><circle cx="45.34" cy="55.95" r="0.72"/><circle class="cls-3" cx="45.39" cy="55.9" r="0.72"/><circle cx="20.52" cy="54.17" r="0.72"/><circle class="cls-3" cx="20.57" cy="54.12" r="0.72"/><circle cx="7.15" cy="56.69" r="0.72"/><circle class="cls-3" cx="7.2" cy="56.65" r="0.72"/></g></g></svg>