<svg xmlns="http://www.w3.org/2000/svg" viewBox="0 0 80 65"><defs><style>.cls-1{fill:#ffc107;}.cls-2{fill:#b3b3b3;}.cls-3{fill:#e6e6e6;}.cls-4{fill:#fff;}</style></defs><g id="Layer_2" data-name="Layer 2"><g id="Layer_1-2" data-name="Layer 1"><circle cx="49.41" cy="30.59" r="18.38"/><polygon points="45.73 8.53 53.09 8.53 49.41 1.18 45.73 8.53"/><polygon points="45.73 52.65 53.09 52.65 49.41 60 45.73 52.65"/><polygon points="71.47 26.91 71.47 34.27 78.82 30.59 71.47 26.91"/><polygon points="27.35 26.91 27.35 34.27 20 30.59 27.35 26.91"/><polygon points="29.95 16.33 35.15 11.13 27.35 8.53 29.95 16.33"/><polygon points="63.67 11.13 68.87 16.33 71.47 8.53 63.67 11.13"/><polygon points="63.67 50.05 68.87 44.85 71.47 52.65 63.67 50.05"/><polygon points="29.95 44.85 35.15 50.05 27.35 52.65 29.95 44.85"/><circle class="cls-1" cx="50.59" cy="29.41" r="18.38"/><polygon class="cls-1" points="46.91 7.35 54.27 7.35 50.59 0 46.91 7.35"/><polygon class="cls-1" points="46.91 51.47 54.27 51.47 50.59 58.82 46.91 51.47"/><polygon class="cls-1" points="72.65 25.73 72.65 33.09 80 29.41 72.65 25.73"/><polygon class="cls-1" points="28.53 25.73 28.53 33.09 21.18 29.41 28.53 25.73"/><polygon class="cls-1" points="31.13 15.15 36.33 9.95 28.53 7.35 31.13 15.15"/><polygon class="cls-1" points="64.85 9.95 70.05 15.15 72.65 7.35 64.85 9.95"/><polygon class="cls-1" points="64.85 48.87 70.05 43.67 72.65 51.47 64.85 48.87"/><polygon class="cls-1" points="31.13 43.67 36.33 48.87 28.53 51.47 31.13 43.67"/><path class="cls-2" d="M11.14,26.15a11.91,11.91,0,0,1,7.57,1.49,17.11,17.11,0,0,1,33.4,5.25v.17A8.46,8.46,0,0,1,54.87,33a8.56,8.56,0,0,1-1,17c-.31,0-.62,0-.92,0a6.87,6.87,0,0,1-.8,0H14.46a6.81,6.81,0,0,1-.78,0c-.3,0-.61,0-.93,0a12,12,0,0,1-1.61-23.85Z"/><path class="cls-3" d="M10.37,25.38a11.91,11.91,0,0,1,7.57,1.49,17.11,17.11,0,0,1,33.4,5.24v.18a8.46,8.46,0,0,1,2.76-.11,8.56,8.56,0,0,1-1,17c-.31,0-.62,0-.92,0a7,7,0,0,1-.8,0H13.69a6.81,6.81,0,0,1-.78,0c-.3,0-.61,0-.93,0a12,12,0,0,1-1.61-23.85Z"/><path class="cls-2" d="M53.4,35.15a12.37,12.37,0,0,0-7.89,1.55A17.83,17.83,0,0,0,10.7,42.17v.18a8.84,8.84,0,0,0-2.87-.12A8.92,8.92,0,0,0,8.92,60c.32,0,.64,0,.95,0a7.55,7.55,0,0,0,.83,0H49.93a7,7,0,0,0,.81,0c.32,0,.65,0,1,0A12.48,12.48,0,0,0,53.4,35.15Z"/><path class="cls-4" d="M54.2,34.34a12.45,12.45,0,0,0-7.89,1.56A17.83,17.83,0,0,0,11.5,41.36c0,.07,0,.12,0,.18a9.2,9.2,0,0,0-2.88-.11A8.92,8.92,0,0,0,9.72,59.2c.32,0,.64,0,.95-.05a7.55,7.55,0,0,0,.83.05H50.73a7,7,0,0,0,.81-.05c.33,0,.65.05,1,.05A12.49,12.49,0,0,0,54.2,34.34Z"/><path class="cls-2" d="M37.8,48.31a8.31,8.31,0,0,1,5.29,1A12,12,0,0,1,66.47,53v.12a6.2,6.2,0,0,1,1.93-.07A6,6,0,0,1,67.67,65,4.58,4.58,0,0,1,67,65a3.43,3.43,0,0,1-.56,0H40.12a4.89,4.89,0,0,1-.54,0c-.22,0-.44,0-.66,0A8.38,8.38,0,0,1,37.8,48.31Z"/><path class="cls-3" d="M37.26,47.77a8.3,8.3,0,0,1,5.29,1,12,12,0,0,1,23.39,3.67s0,.08,0,.12a6.21,6.21,0,0,1,1.93-.07,6,6,0,0,1-.73,11.93c-.21,0-.43,0-.64,0a5.07,5.07,0,0,1-.55,0H39.58a4.89,4.89,0,0,1-.54,0c-.22,0-.43,0-.66,0a8.38,8.38,0,0,1-1.12-16.69Z"/></g></g></svg>