<svg xmlns="http://www.w3.org/2000/svg" viewBox="0 0 67.22 51.67"><defs><style>.cls-1,.cls-2{fill:none;stroke-linecap:round;stroke-linejoin:round;stroke-width:5px;}.cls-1{stroke:#000;}.cls-2{stroke:#fff;}</style></defs><g id="Layer_2" data-name="Layer 2"><g id="Layer_1-2" data-name="Layer 1"><path class="cls-1" d="M2.5,25.84H55.92a7.67,7.67,0,0,0,7.66-7.67h0a7.66,7.66,0,0,0-7.66-7.67h0a7.66,7.66,0,0,0-7.67,7.67h0"/><path class="cls-1" d="M2.5,18.84H32.91a7.68,7.68,0,0,0,7.67-7.67h0A7.67,7.67,0,0,0,32.91,3.5h0"/><path class="cls-1" d="M2.5,33.84H25.24a7.66,7.66,0,0,1,7.67,7.67h0a7.66,7.66,0,0,1-7.67,7.66h0a7.67,7.67,0,0,1-7.67-7.66h0"/><path class="cls-1" d="M40.5,33.84h7.75a7.67,7.67,0,0,1,7.67,7.67h0"/><path class="cls-2" d="M3.63,24.84H57.05a7.68,7.68,0,0,0,7.67-7.67h0A7.67,7.67,0,0,0,57.05,9.5h0a7.66,7.66,0,0,0-7.67,7.67h0"/><path class="cls-2" d="M3.63,17.84H34a7.67,7.67,0,0,0,7.67-7.67h0A7.66,7.66,0,0,0,34,2.5h0"/><path class="cls-2" d="M3.63,32.84H26.37A7.66,7.66,0,0,1,34,40.51h0a7.66,7.66,0,0,1-7.67,7.66h0a7.67,7.67,0,0,1-7.67-7.66h0"/><path class="cls-2" d="M41.63,32.84h7.75a7.67,7.67,0,0,1,7.67,7.67h0"/></g></g></svg>