<svg xmlns="http://www.w3.org/2000/svg" viewBox="0 0 51 106"><defs><style>.cls-1,.cls-4{fill:none;}.cls-1{stroke:#000;}.cls-1,.cls-2,.cls-4{stroke-linecap:round;stroke-linejoin:round;stroke-width:5px;}.cls-2{fill:#fff;stroke:#212121;}.cls-3{fill:#b22222;}.cls-4{stroke:#b22222;}</style></defs><g id="Layer_2" data-name="Layer 2"><g id="Layer_1-2" data-name="Layer 1"><path class="cls-1" d="M32.5,66.2V13.81A10.2,10.2,0,0,0,24,3.61,10,10,0,0,0,12.5,13.5V66.2a20,20,0,1,0,20,0Z"/><line class="cls-1" x1="37.5" y1="19" x2="47.5" y2="19"/><line class="cls-1" x1="37.5" y1="29" x2="47.5" y2="29"/><line class="cls-1" x1="37.5" y1="39" x2="47.5" y2="39"/><path class="cls-2" d="M33.5,65.2V12.81A10.2,10.2,0,0,0,25,2.61,10,10,0,0,0,13.5,12.5V65.2a20,20,0,1,0,20,0Z"/><line class="cls-2" x1="38.5" y1="18" x2="48.5" y2="18"/><line class="cls-2" x1="38.5" y1="28" x2="48.5" y2="28"/><line class="cls-2" x1="38.5" y1="38" x2="48.5" y2="38"/><circle class="cls-3" cx="23.5" cy="83" r="10"/><line class="cls-4" x1="23.5" y1="73" x2="23.5" y2="43"/></g></g></svg>