<svg xmlns="http://www.w3.org/2000/svg" viewBox="0 0 81 57.51"><defs><style>.cls-1{fill:#b3b3b3;}.cls-2{fill:#fff;}</style></defs><g id="Layer_2" data-name="Layer 2"><g id="Layer_1-2" data-name="Layer 1"><path class="cls-1" d="M66.54,14.47a15.42,15.42,0,0,0-9.83,1.94,22.23,22.23,0,0,0-43.38,6.81c0,.08,0,.15,0,.23A11.09,11.09,0,0,0,.06,33.14a11.11,11.11,0,0,0,11,12.3,11.71,11.71,0,0,0,1.19-.06,8.77,8.77,0,0,0,1,.06H62.22a8.43,8.43,0,0,0,1-.06c.4,0,.8.06,1.21.06a15.56,15.56,0,0,0,2.1-31Z"/><path class="cls-2" d="M67.54,13.47a15.42,15.42,0,0,0-9.83,1.94,22.23,22.23,0,0,0-43.38,6.81c0,.08,0,.15,0,.23A11.09,11.09,0,0,0,1.06,32.14a11.11,11.11,0,0,0,11,12.3,11.71,11.71,0,0,0,1.19-.06,8.77,8.77,0,0,0,1,.06H63.22a8.43,8.43,0,0,0,1-.06c.4,0,.8.06,1.21.06a15.56,15.56,0,0,0,2.1-31Z"/><circle cx="12.55" cy="51.58" r="2.33"/><circle class="cls-2" cx="12.7" cy="51.42" r="2.33"/><circle cx="17.35" cy="56.66" r="0.85"/><circle class="cls-2" cx="17.4" cy="56.61" r="0.85"/><circle cx="20.77" cy="49.1" r="0.92"/><circle class="cls-2" cx="20.83" cy="49.03" r="0.92"/></g></g></svg>