<svg xmlns="http://www.w3.org/2000/svg" viewBox="0 0 81 59.84"><defs><style>.cls-1,.cls-2{fill:none;stroke-miterlimit:10;}.cls-1{stroke:#000;}.cls-2{stroke:#fff;}.cls-3{fill:#b3b3b3;}.cls-4{fill:#fff;}</style></defs><g id="Layer_2" data-name="Layer 2"><g id="Layer_1-2" data-name="Layer 1"><rect class="cls-1" x="36.77" y="51.39" width="7.46" height="7.46" rx="2" transform="translate(-16.41 17.18) rotate(-20)"/><rect class="cls-1" x="49.56" y="51.39" width="7.46" height="7.46" rx="2" transform="translate(-15.64 21.55) rotate(-20)"/><rect class="cls-1" x="23.98" y="51.39" width="7.46" height="7.46" rx="2" transform="translate(-17.18 12.8) rotate(-20)"/><rect class="cls-2" x="36.77" y="51.04" width="7.46" height="7.46" rx="2" transform="translate(-16.29 17.15) rotate(-20)"/><rect class="cls-2" x="49.56" y="51.04" width="7.46" height="7.46" rx="2" transform="translate(-15.52 21.53) rotate(-20)"/><rect class="cls-2" x="23.98" y="51.04" width="7.46" height="7.46" rx="2" transform="translate(-17.06 12.78) rotate(-20)"/><path class="cls-3" d="M66.54,14.47a15.42,15.42,0,0,0-9.83,1.94,22.23,22.23,0,0,0-43.38,6.81c0,.08,0,.15,0,.23A11.09,11.09,0,0,0,.06,33.14a11.11,11.11,0,0,0,11,12.3,11.71,11.71,0,0,0,1.19-.06,8.77,8.77,0,0,0,1,.06H62.22a8.43,8.43,0,0,0,1-.06c.4,0,.8.06,1.21.06a15.56,15.56,0,0,0,2.1-31Z"/><path class="cls-4" d="M67.54,13.47a15.42,15.42,0,0,0-9.83,1.94,22.23,22.23,0,0,0-43.38,6.81c0,.08,0,.15,0,.23A11.09,11.09,0,0,0,1.06,32.14a11.11,11.11,0,0,0,11,12.3,11.71,11.71,0,0,0,1.19-.06,8.77,8.77,0,0,0,1,.06H63.22a8.43,8.43,0,0,0,1-.06c.4,0,.8.06,1.21.06a15.56,15.56,0,0,0,2.1-31Z"/></g></g></svg>