<svg xmlns="http://www.w3.org/2000/svg" viewBox="0 0 61.09 60"><defs><style>.cls-1{fill:#ffc107;}.cls-2{fill:#b3b3b3;}.cls-3{fill:#fff;}</style></defs><g id="Layer_2" data-name="Layer 2"><g id="Layer_1-2" data-name="Layer 1"><circle cx="30.5" cy="30.59" r="18.38"/><polygon points="26.82 8.53 34.18 8.53 30.5 1.18 26.82 8.53"/><polygon points="26.82 52.65 34.18 52.65 30.5 60 26.82 52.65"/><polygon points="52.56 26.91 52.56 34.27 59.91 30.59 52.56 26.91"/><polygon points="8.44 26.91 8.44 34.27 1.09 30.59 8.44 26.91"/><polygon points="11.04 16.33 16.24 11.13 8.44 8.53 11.04 16.33"/><polygon points="44.76 11.13 49.96 16.33 52.56 8.53 44.76 11.13"/><polygon points="44.76 50.05 49.96 44.85 52.56 52.65 44.76 50.05"/><polygon points="11.04 44.85 16.24 50.05 8.44 52.65 11.04 44.85"/><circle class="cls-1" cx="31.68" cy="29.41" r="18.38"/><polygon class="cls-1" points="28 7.35 35.35 7.35 31.68 0 28 7.35"/><polygon class="cls-1" points="28 51.47 35.35 51.47 31.68 58.82 28 51.47"/><polygon class="cls-1" points="53.73 25.73 53.73 33.09 61.09 29.41 53.73 25.73"/><polygon class="cls-1" points="9.62 25.73 9.62 33.09 2.26 29.41 9.62 25.73"/><polygon class="cls-1" points="12.22 15.15 17.42 9.95 9.62 7.35 12.22 15.15"/><polygon class="cls-1" points="45.94 9.95 51.13 15.15 53.73 7.35 45.94 9.95"/><polygon class="cls-1" points="45.94 48.87 51.13 43.67 53.73 51.47 45.94 48.87"/><polygon class="cls-1" points="12.22 43.67 17.42 48.87 9.62 51.47 12.22 43.67"/><path class="cls-2" d="M29.65,41.2a7,7,0,0,0-4.38.86,9.9,9.9,0,0,0-19.33,3v.1A4.95,4.95,0,1,0,5,55a4.58,4.58,0,0,0,.53,0,3.44,3.44,0,0,0,.46,0H27.72a3.4,3.4,0,0,0,.45,0,4.89,4.89,0,0,0,.54,0,6.93,6.93,0,0,0,.94-13.8Z"/><path class="cls-3" d="M30.09,40.76a6.83,6.83,0,0,0-4.38.86,9.9,9.9,0,0,0-19.32,3v.1A5,5,0,0,0,.47,49.07,5,5,0,0,0,5.4,54.55l.52,0,.47,0H28.17l.45,0,.54,0a6.93,6.93,0,0,0,.93-13.79Z"/></g></g></svg>