<svg xmlns="http://www.w3.org/2000/svg" viewBox="0 0 79.4 62.59"><defs><style>.cls-1{fill:#ffc107;}.cls-2{fill:#b3b3b3;}.cls-3{fill:#fff;}</style></defs><g id="Layer_2" data-name="Layer 2"><g id="Layer_1-2" data-name="Layer 1"><path d="M68.22,33.31A21.94,21.94,0,0,1,49,.88,21.94,21.94,0,1,0,78.71,30.64,21.85,21.85,0,0,1,68.22,33.31Z"/><path class="cls-1" d="M68.9,32.43A21.94,21.94,0,0,1,49.64,0,21.94,21.94,0,1,0,79.4,29.76,21.86,21.86,0,0,1,68.9,32.43Z"/><path class="cls-2" d="M53.4,24.48A12.43,12.43,0,0,0,45.51,26,17.84,17.84,0,0,0,10.7,31.5v.18a8.85,8.85,0,0,0-2.87-.11A8.91,8.91,0,0,0,8.92,49.33c.32,0,.64,0,.95,0a7.55,7.55,0,0,0,.83,0H49.93a7,7,0,0,0,.81,0c.32,0,.65,0,1,0A12.48,12.48,0,0,0,53.4,24.48Z"/><path class="cls-3" d="M54.2,23.68a12.38,12.38,0,0,0-7.89,1.55A17.84,17.84,0,0,0,11.5,30.7c0,.06,0,.12,0,.18A8.92,8.92,0,1,0,9.72,48.53c.32,0,.64,0,.95-.05a7.55,7.55,0,0,0,.83.05H50.73a7,7,0,0,0,.81-.05c.33,0,.65.05,1,.05A12.48,12.48,0,0,0,54.2,23.68Z"/><polygon points="29.39 42.52 25.38 50.55 29.39 50.55 25.38 62.59 35.41 48.54 31.4 48.54 35.41 42.52 29.39 42.52"/><polygon class="cls-1" points="30.19 41.72 26.18 49.75 30.19 49.75 26.18 61.78 36.21 47.74 32.2 47.74 36.21 41.72 30.19 41.72"/></g></g></svg>