<svg xmlns="http://www.w3.org/2000/svg" viewBox="0 0 79.4 60.35"><defs><style>.cls-1{fill:#fff;}.cls-2{fill:#ffc107;}.cls-3{fill:#b3b3b3;}</style></defs><g id="Layer_2" data-name="Layer 2"><g id="Layer_1-2" data-name="Layer 1"><circle cx="38.77" cy="57.51" r="2.8"/><circle class="cls-1" cx="38.95" cy="57.33" r="2.8"/><circle cx="53.06" cy="54.62" r="2.53"/><circle class="cls-1" cx="53.23" cy="54.45" r="2.53"/><circle cx="23.5" cy="53.91" r="2.53"/><circle class="cls-1" cx="23.67" cy="53.74" r="2.53"/><circle cx="28.71" cy="59.42" r="0.92"/><circle class="cls-1" cx="28.77" cy="59.36" r="0.92"/><circle cx="48.95" cy="59.1" r="0.92"/><circle class="cls-1" cx="49.01" cy="59.04" r="0.92"/><circle cx="45.64" cy="51.96" r="0.92"/><circle class="cls-1" cx="45.7" cy="51.9" r="0.92"/><circle cx="63.32" cy="54.21" r="0.92"/><circle class="cls-1" cx="63.38" cy="54.15" r="0.92"/><circle cx="31.52" cy="51.93" r="0.92"/><circle class="cls-1" cx="31.58" cy="51.87" r="0.92"/><circle cx="14.4" cy="55.16" r="0.92"/><circle class="cls-1" cx="14.47" cy="55.1" r="0.92"/><path d="M68.22,33.31A21.94,21.94,0,0,1,49,.88,21.94,21.94,0,1,0,78.71,30.64,21.85,21.85,0,0,1,68.22,33.31Z"/><path class="cls-2" d="M68.9,32.43A21.94,21.94,0,0,1,49.64,0,21.94,21.94,0,1,0,79.4,29.76,21.86,21.86,0,0,1,68.9,32.43Z"/><path class="cls-3" d="M53.4,24.48A12.43,12.43,0,0,0,45.51,26,17.84,17.84,0,0,0,10.7,31.5v.18a8.85,8.85,0,0,0-2.87-.11A8.91,8.91,0,0,0,8.92,49.33c.32,0,.64,0,.95,0a7.55,7.55,0,0,0,.83,0H49.93a7,7,0,0,0,.81,0c.32,0,.65,0,1,0A12.48,12.48,0,0,0,53.4,24.48Z"/><path class="cls-1" d="M54.2,23.68a12.38,12.38,0,0,0-7.89,1.55A17.84,17.84,0,0,0,11.5,30.7c0,.06,0,.12,0,.18A8.92,8.92,0,1,0,9.72,48.53c.32,0,.64,0,.95-.05a7.55,7.55,0,0,0,.83.05H50.73a7,7,0,0,0,.81-.05c.33,0,.65.05,1,.05A12.48,12.48,0,0,0,54.2,23.68Z"/></g></g></svg>